<svg id="Capa_1" enable-background="new 0 0 504.5 504.5" height="512" viewBox="0 0 504.5 504.5" width="512" xmlns="http://www.w3.org/2000/svg"><g><g><path d="m55 504.5c-4.143 0-7.5-3.357-7.5-7.5v-40c0-4.143 3.357-7.5 7.5-7.5s7.5 3.357 7.5 7.5v40c0 4.143-3.357 7.5-7.5 7.5z" fill="#6f6571"/></g><g><path d="m47.5 457h-40c-4.143 0-7.5-3.357-7.5-7.5s3.357-7.5 7.5-7.5h40c4.143 0 7.5 3.357 7.5 7.5s-3.357 7.5-7.5 7.5z" fill="#6f6571"/></g><g><path d="m466.745 384.862-35.319-.851c-5.523 0-10-4.477-10-10l.255-123.33c0-5.523 4.477-10 10-10l9.319-2.181h28c5.523 0 10 4.477 10 10v116.5l-2.255 9.862c0 5.523-4.477 10-10 10z" fill="#afefa5"/><path d="m479 365v12c0 5.52-4.48 10-10 10h-40c-5.52 0-10-4.48-10-10v-128.5c0-5.52 4.48-10 10-10h12v119.5c0 3.87 3.13 7 7 7z" fill="#8ce1a4"/></g><path d="m77.5 423v-418c0-2.761-2.239-5-5-5h-9l-7.287 2.372c-2.761 0-5 2.239-5 5l.596 444 442.511 1.787c2.761 0 5-2.239 5-5l5.18-7.159v-9c0-2.761-2.239-5-5-5h-418c-2.209 0-4-1.791-4-4z" fill="#857e87"/><path d="m504.5 441v11c0 2.761-2.239 5-5 5h-452v-452c0-2.761 2.239-5 5-5h11v437c0 2.209 1.791 4 4 4z" fill="#6f6571"/><g><path d="m166.745 384.862-35.319-.851c-5.523 0-10-4.477-10-10l.255-63.83c0-5.523 4.477-10 10-10l9.319-2.181h28c5.523 0 10 4.477 10 10v57l-2.255 9.862c0 5.523-4.477 10-10 10z" fill="#fe76a8"/><path d="m179 365v12c0 5.52-4.48 10-10 10h-40c-5.52 0-10-4.48-10-10v-69c0-5.52 4.48-10 10-10h12v60c0 3.87 3.13 7 7 7z" fill="#fe5694"/></g><g><path d="m266.745 384.862-35.319-.851c-5.523 0-10-4.477-10-10l.255-193.83c0-5.523 4.477-10 10-10l9.319-2.181h28c5.523 0 10 4.477 10 10v187l-2.255 9.862c0 5.523-4.477 10-10 10z" fill="#fcb17a"/><path d="m279 365v12c0 5.52-4.48 10-10 10h-40c-5.52 0-10-4.48-10-10v-199c0-5.52 4.48-10 10-10h12v190c0 3.87 3.13 7 7 7z" fill="#fc9e6b"/></g><g><path d="m366.745 384.862-35.319-.851c-5.523 0-10-4.477-10-10l.255-143.83c0-5.523 4.477-10 10-10l9.319-2.181h28c5.523 0 10 4.477 10 10v137l-2.255 9.862c0 5.523-4.477 10-10 10z" fill="#ffe07d"/><path d="m379 365v12c0 5.52-4.48 10-10 10h-40c-5.52 0-10-4.48-10-10v-149c0-5.52 4.48-10 10-10h12v140c0 3.87 3.13 7 7 7z" fill="#ffd064"/></g><g><path d="m118.5 265.5c-4.143 0-7.5-3.357-7.5-7.5s3.357-7.5 7.5-7.5c20.643 0 38.362-14.034 43.09-34.128l19.424-82.549c7.386-31.396 35.072-53.323 67.325-53.323 27.704 0 52.658 16.454 63.572 41.919 7.311 17.059 24.026 28.081 42.586 28.081h19.503c17.733 0 35.313 5.86 49.5 16.5 11.607 8.706 25.99 13.5 40.5 13.5h14.5c4.143 0 7.5 3.358 7.5 7.5s-3.357 7.5-7.5 7.5h-14.5c-17.733 0-35.313-5.86-49.5-16.5-11.607-8.706-25.99-13.5-40.5-13.5h-19.503c-24.568 0-46.695-14.591-56.373-37.172-8.548-19.942-28.089-32.828-49.785-32.828-25.258 0-46.938 17.171-52.724 41.758l-19.424 82.549c-6.33 26.903-30.053 45.693-57.691 45.693z" fill="#b2e5fb"/></g><g><g><path d="m17.5 114.5h-10c-4.143 0-7.5-3.358-7.5-7.5s3.357-7.5 7.5-7.5h10c4.143 0 7.5 3.358 7.5 7.5s-3.357 7.5-7.5 7.5z" fill="#b2e5fb"/></g><g><path d="m17.5 44.5h-10c-4.143 0-7.5-3.358-7.5-7.5s3.357-7.5 7.5-7.5h10c4.143 0 7.5 3.358 7.5 7.5s-3.357 7.5-7.5 7.5z" fill="#b2e5fb"/></g><g><path d="m17.5 184.5h-10c-4.143 0-7.5-3.358-7.5-7.5s3.357-7.5 7.5-7.5h10c4.143 0 7.5 3.358 7.5 7.5s-3.357 7.5-7.5 7.5z" fill="#b2e5fb"/></g><g><path d="m17.5 254.5h-10c-4.143 0-7.5-3.357-7.5-7.5 0-4.142 3.357-7.5 7.5-7.5h10c4.143 0 7.5 3.358 7.5 7.5 0 4.143-3.357 7.5-7.5 7.5z" fill="#b2e5fb"/></g><g><path d="m17.5 324.5h-10c-4.143 0-7.5-3.357-7.5-7.5s3.357-7.5 7.5-7.5h10c4.143 0 7.5 3.357 7.5 7.5s-3.357 7.5-7.5 7.5z" fill="#b2e5fb"/></g><g><path d="m17.5 394.5h-10c-4.143 0-7.5-3.357-7.5-7.5s3.357-7.5 7.5-7.5h10c4.143 0 7.5 3.357 7.5 7.5s-3.357 7.5-7.5 7.5z" fill="#b2e5fb"/></g><g><path d="m397.5 504.5c-4.143 0-7.5-3.357-7.5-7.5v-10c0-4.143 3.357-7.5 7.5-7.5s7.5 3.357 7.5 7.5v10c0 4.143-3.357 7.5-7.5 7.5z" fill="#b2e5fb"/></g><g><path d="m467.5 504.5c-4.143 0-7.5-3.357-7.5-7.5v-10c0-4.143 3.357-7.5 7.5-7.5s7.5 3.357 7.5 7.5v10c0 4.143-3.357 7.5-7.5 7.5z" fill="#b2e5fb"/></g><g><path d="m327.5 504.5c-4.143 0-7.5-3.357-7.5-7.5v-10c0-4.143 3.357-7.5 7.5-7.5s7.5 3.357 7.5 7.5v10c0 4.143-3.357 7.5-7.5 7.5z" fill="#b2e5fb"/></g><g><path d="m257.5 504.5c-4.143 0-7.5-3.357-7.5-7.5v-10c0-4.143 3.357-7.5 7.5-7.5s7.5 3.357 7.5 7.5v10c0 4.143-3.357 7.5-7.5 7.5z" fill="#b2e5fb"/></g><g><path d="m187.5 504.5c-4.143 0-7.5-3.357-7.5-7.5v-10c0-4.143 3.357-7.5 7.5-7.5s7.5 3.357 7.5 7.5v10c0 4.143-3.357 7.5-7.5 7.5z" fill="#b2e5fb"/></g><g><path d="m117.5 504.5c-4.143 0-7.5-3.357-7.5-7.5v-10c0-4.143 3.357-7.5 7.5-7.5s7.5 3.357 7.5 7.5v10c0 4.143-3.357 7.5-7.5 7.5z" fill="#b2e5fb"/></g></g></g></svg>