<svg width="205" height="205" viewBox="0 0 205 205" fill="none" xmlns="http://www.w3.org/2000/svg">
<g clip-path="url(#clip0_479_13197)">
<path d="M154.966 31.835L155.064 31.8895L136.151 37.6797L150.855 10.2118L169.605 4.4762L154.966 31.835Z" fill="#1D5128"/>
<path d="M21.187 72.8568L186.943 22.1411L180.515 1.13403L14.7535 51.8552L21.187 72.8568Z" fill="#15301A"/>
<path d="M183.726 11.6294L186.943 22.1411L176.371 25.3742L183.726 11.6294Z" fill="#15301A"/>
<path d="M17.8775 71.7227L183.639 21.0016L177.21 0L11.4495 50.7211L17.8775 71.7227Z" fill="white"/>
<path d="M151.662 30.7009L151.76 30.7554L132.847 36.5456L147.551 9.07776L166.301 3.33667L151.662 30.7009Z" fill="#15532C"/>
<path d="M92.6371 48.851L107.32 21.405L107.287 21.3996L126.091 15.6476L111.403 43.0772L111.441 43.099L92.6371 48.851Z" fill="#18532A"/>
<path d="M26.8081 46.1632L26.6336 46.0705L45.6561 40.2531L30.9572 67.7209L17.8775 71.7227L16.1437 66.0852L26.8081 46.1632Z" fill="#18532C"/>
<path d="M180.422 10.4899L183.639 21.0016L173.067 24.2401L180.422 10.4899Z" fill="#18532C"/>
<path d="M67.0612 33.7869L66.963 33.7323L85.871 27.9476L71.1721 55.4155L52.4222 61.1511L67.0612 33.7869Z" fill="#18532C"/>
<path d="M180.514 1.13404L177.211 0L177.81 1.96277L180.514 1.13404Z" fill="#1D5128"/>
<path d="M17.8775 71.7228L21.1869 72.8568L20.5818 70.894L17.8775 71.7228Z" fill="#15301A"/>
<path d="M43.1863 204.198C33.7432 204.198 26.0939 197.803 26.0939 189.908V190.23C26.0932 192.119 26.4645 193.989 27.1867 195.734C27.9089 197.479 28.9678 199.064 30.3029 200.4C31.6381 201.736 33.2232 202.795 34.9679 203.518C36.7126 204.241 38.5826 204.613 40.4711 204.613H79.6011V204.198H43.1863Z" fill="#15301A"/>
<path d="M157.79 92.0101H89.7039V204.199H79.6011V204.613H176.649C180.463 204.611 184.119 203.096 186.816 200.398C189.512 197.701 191.026 194.044 191.026 190.23V92.0101H157.768H157.79Z" fill="#15301A"/>
<path d="M43.1863 204.199H89.7038V92.0101H26.0939V189.909C26.0939 197.803 33.7432 204.199 43.1863 204.199Z" fill="#15301A"/>
<path d="M187.749 191.37C187.749 198.076 181.311 203.501 173.367 203.501H37.1671C29.2234 203.473 22.7899 198.049 22.7899 191.37V97.0479C22.7899 90.3527 29.2234 92.3263 37.1671 92.3263H173.378C181.321 92.3263 187.76 90.3527 187.76 97.0479L187.749 191.37Z" fill="#286934"/>
<path d="M37.1671 92.6262C29.2234 92.6262 22.7899 90.6579 22.7899 97.3313V191.37C22.7899 198.054 29.2234 203.462 37.1671 203.462H76.3298V92.6262H37.1671Z" fill="url(#paint0_linear_479_13197)" stroke="#19522B" stroke-width="0.5" stroke-miterlimit="10"/>
<path d="M173.378 92.2826H76.3298V203.473H173.378C181.321 203.473 187.76 198.048 187.76 191.342V97.0205C187.749 90.309 181.31 92.2826 173.378 92.2826Z" fill="#286934"/>
<path d="M173.378 92.2826H76.3298V203.473H173.378C181.321 203.473 187.76 198.048 187.76 191.342V97.0205C187.749 90.309 181.31 92.2826 173.378 92.2826Z" fill="url(#paint1_linear_479_13197)"/>
<path fill-rule="evenodd" clip-rule="evenodd" d="M129.341 126.369C131.648 126.532 133.927 126.973 136.129 127.683C126.042 128.518 117.668 136.216 116.719 146.155C115.629 157.196 122.171 167.195 133.697 168.024C136.833 168.256 139.983 167.807 142.929 166.708C145.876 165.609 148.55 163.885 150.768 161.656C146.586 172.707 135.06 180.253 122.302 179.337C107.123 178.246 97.942 165.216 99.3323 150.691C100.723 136.167 114.162 125.279 129.341 126.369Z" fill="white"/>
<path fill-rule="evenodd" clip-rule="evenodd" d="M136.096 127.689C126.031 128.534 117.668 136.227 116.719 146.155C115.629 157.196 122.171 167.195 133.697 168.024C136.826 168.255 139.967 167.809 142.908 166.716C145.848 165.622 148.518 163.908 150.735 161.688C146.918 168.52 138.484 171.802 130.088 171.197C117.641 170.303 110.46 159.546 111.61 147.638C112.761 135.731 123.698 126.86 136.096 127.689Z" fill="url(#paint2_linear_479_13197)"/>
<path fill-rule="evenodd" clip-rule="evenodd" d="M140.632 174.403C135.256 178.073 128.794 179.812 122.302 179.337C107.123 178.246 97.942 165.216 99.3323 150.691C100.188 141.799 105.559 134.264 113.083 130.011C109.835 132.187 107.105 135.051 105.088 138.4C103.071 141.749 101.815 145.5 101.41 149.388C100.019 163.907 109.201 176.949 124.379 178.034C130.042 178.451 135.701 177.182 140.643 174.386L140.632 174.403ZM120.089 127.198L120.476 127.1C120.056 127.307 119.641 127.531 119.233 127.76C119.511 127.58 119.8 127.378 120.089 127.198Z" fill="#1D5128"/>
<path fill-rule="evenodd" clip-rule="evenodd" d="M145.888 134.062L148.287 141.499L156.105 141.483L149.77 146.063L152.202 153.488L145.888 148.887L139.574 153.488L142.006 146.063L135.671 141.483L143.489 141.499L145.888 134.062Z" fill="#1D5128"/>
<path fill-rule="evenodd" clip-rule="evenodd" d="M146.886 133.424L149.285 140.861L157.103 140.845L150.773 145.425L153.199 152.856L146.886 148.249L140.572 152.856L143.004 145.425L136.674 140.845L144.487 140.861L146.886 133.424Z" fill="url(#paint3_linear_479_13197)"/>
<path fill-rule="evenodd" clip-rule="evenodd" d="M146.362 133.643L148.767 141.079L156.58 141.068L150.25 145.648L152.676 153.074L146.362 148.467L140.049 153.074L142.48 145.648L136.151 141.068L143.963 141.079L146.362 133.643Z" fill="#FCFCFB"/>
<path d="M178.039 73.5383H158.144H135.867H116.087H93.6948H74.0399H51.588H31.9822H20.5709V84.508V95.4995H26.0939H31.6278H53.9052H73.68H89.7038H96.0774H115.738H138.179H157.79H180.242H191.053H193.921V89.6003V73.5383H178.039Z" fill="#15301A"/>
<path d="M190.617 72.4043H17.2669V94.36H190.617V72.4043Z" fill="white"/>
<path d="M190.617 72.4043L193.921 73.5383H190.617V72.4043Z" fill="#15301A"/>
<path d="M20.5709 95.4995L17.2614 94.36H20.5709V95.4995Z" fill="#15301A"/>
<path d="M50.683 94.2837L50.6012 94.36H70.3761L48.284 72.4043H28.6782L50.683 94.2837Z" fill="#18532C"/>
<path d="M112.434 94.36L90.3636 72.4207L90.3854 72.4043H70.7359L92.7952 94.3382L92.7679 94.36H112.434Z" fill="#18532C"/>
<path d="M174.593 72.5351L174.735 72.4043H154.84L176.938 94.36H190.617V88.4663L174.593 72.5351Z" fill="#18532C"/>
<path d="M17.2614 83.3685V94.36H28.3238L17.2614 83.3685Z" fill="#18532C"/>
<path d="M132.481 72.4861L132.563 72.4043H112.783L134.875 94.36H154.486L132.481 72.4861Z" fill="#18532C"/>
</g>
<defs>
<linearGradient id="paint0_linear_479_13197" x1="62.2142" y1="148.096" x2="14.0828" y2="147.704" gradientUnits="userSpaceOnUse">
<stop offset="0.38" stop-color="white"/>
<stop offset="0.55" stop-color="#FDFDFD"/>
<stop offset="0.64" stop-color="#F5F8F6"/>
<stop offset="0.71" stop-color="#E8EEEA"/>
<stop offset="0.77" stop-color="#D5E0D9"/>
<stop offset="0.82" stop-color="#BDCEC2"/>
<stop offset="0.87" stop-color="#9FB7A7"/>
<stop offset="0.91" stop-color="#7B9D86"/>
<stop offset="0.95" stop-color="#517E61"/>
<stop offset="0.99" stop-color="#245C37"/>
<stop offset="1" stop-color="#18532C"/>
</linearGradient>
<linearGradient id="paint1_linear_479_13197" x1="131.636" y1="105.259" x2="132.678" y2="226.045" gradientUnits="userSpaceOnUse">
<stop offset="0.39" stop-color="#19522B"/>
<stop offset="0.47" stop-color="#2B603C" stop-opacity="0.97"/>
<stop offset="0.61" stop-color="#5C8569" stop-opacity="0.88"/>
<stop offset="0.78" stop-color="#ACC0B2" stop-opacity="0.74"/>
<stop offset="0.95" stop-color="white" stop-opacity="0.6"/>
</linearGradient>
<linearGradient id="paint2_linear_479_13197" x1="111.242" y1="154.355" x2="147.792" y2="148.125" gradientUnits="userSpaceOnUse">
<stop offset="0.09" stop-color="#286934" stop-opacity="0.3"/>
<stop offset="0.81" stop-color="white" stop-opacity="0.3"/>
</linearGradient>
<linearGradient id="paint3_linear_479_13197" x1="136.674" y1="143.14" x2="157.103" y2="143.14" gradientUnits="userSpaceOnUse">
<stop offset="0.09" stop-color="#286934" stop-opacity="0.3"/>
<stop offset="0.81" stop-color="white" stop-opacity="0.3"/>
</linearGradient>
<clipPath id="clip0_479_13197">
<rect width="182.472" height="204.613" fill="white" transform="translate(11.4495)"/>
</clipPath>
</defs>
</svg>
