<svg version="1.2" xmlns="http://www.w3.org/2000/svg" viewBox="0 0 105 327" width="105" height="327">
	<title>scene1-ai</title>
	<defs>
		<clipPath clipPathUnits="userSpaceOnUse" id="cp1">
			<path d="m526.02 340h-776.04c-52.05 0-94.24-42.19-94.24-94.24v-455.52c0-52.05 42.19-94.24 94.24-94.24h776.04c52.05 0 94.24 42.19 94.24 94.24v455.52c0 52.05-42.19 94.24-94.24 94.24z"/>
		</clipPath>
	</defs>
	<style>
		.s0 { fill: #a5644f } 
		.s1 { fill: #000000 } 
		.s2 { fill: #d18359 } 
		.s3 { fill: #915a19 } 
		.s4 { fill: #1c468a } 
		.s5 { fill: #b64c41 } 
		.s6 { fill: #090000 } 
		.s7 { fill: #cc7a0e } 
		.s8 { fill: #683c2d } 
		.s9 { fill: #4f4025 } 
		.s10 { fill: #d63728 } 
		.s11 { fill: #b12324 } 
		.s12 { fill: #eb4b2f } 
	</style>
	<g id="Layer 1">
		<g id="&lt;Clip Group&gt;" clip-path="url(#cp1)">
			<g id="&lt;Group&gt;">
				<g id="&lt;Group&gt;">
					<path id="&lt;Path&gt;" class="s0" d="m59.3 28.5l8.3 12c0 0-3.4-2.8-5.9-3.3-2.7-0.5-3.6-2.3-3.6-2.3-4.4-0.6-11.4 5.2-11.4 5.2 0.6-3.3 12.6-11.6 12.6-11.6z"/>
				</g>
				<path id="&lt;Path&gt;" class="s1" d="m62.9 287.4q3.2-0.1 6.4 0.6c7.6 1.6 14.2 6.6 21.6 9.2 1.2 0.3 2.4 0.7 3.2 1.6 0.9 0.8 1.3 2.4 0.5 3.3-0.4 0.4-0.9 0.7-1.4 0.8-4.4 1.7-9.5 1.6-13.8-0.3-1.4-0.6-2.7-1.4-4-2-4.5-2-9.6-2.1-14.1-4.2-1.7-0.8-3.3-2-4-3.7-0.7-1.8-0.1-4.3 1.6-4.9z"/>
				<path id="&lt;Path&gt;" class="s1" d="m34.5 294.1c1.4 0.1 2.8 0.1 4 0.9 0.8 0.6 1.4 1.6 2 2.4 1.8 2.3 4.3 3.9 6.9 5.4 1.5 0.8 3.2 1.7 4.4 3 1.2 1.3 1.9 3.3 1.3 4.9-0.8 2.3-3.5 3.1-5.8 3.4-3.4 0.3-7-0.1-9.6-2.1-1.1-0.8-1.9-1.8-2.8-2.7-1.7-1.7-3.6-3.2-5.2-5-1.5-1.8-2.6-4.2-2.2-6.5 0.4-2.4 2.9-4.4 5.2-3.6z"/>
				<path id="&lt;Path&gt;" class="s2" d="m33.9 284.8q5 0.4 10-0.1c0.2 3.4 0.3 6.8 1.3 10.1 1 3.3 3 6.4 6 8 1 0.6 2.3 1.1 2.9 2.2 0.5 1.2-0.1 2.8-1.3 3.3-1.1 0.5-2.7-0.2-3.1-1.5 0.4 1-0.9 1.9-1.8 1.6-1-0.3-1.5-1.3-1.8-2.3 0.6 1.1 0.3 2.7-0.9 3.3-1.1 0.5-2.7-0.5-2.4-1.7q0 0.3-0.1 0.7c-0.2 1-1.4 1.5-2.3 0.9-0.5-0.4-1-1-1.2-1.7v0.1c-0.2 1.1-1.6 1.6-2.4 0.8q-0.5-0.5-0.8-1.1c-0.6-1.1-0.9-2.4-1.5-3.5-1.2-1.8-3.4-2.8-4-4.9-1-3.1 3-10 1.7-13.1z"/>
				<path id="&lt;Path&gt;" class="s2" d="m63.4 278.5q3.4 0 6.8 0c1.2 4.2 4.1 7.8 7.6 10.5 3.4 2.7 7.5 4.5 11.7 5.9 0.6 0.2 1.2 0.4 1.7 0.9q-0.6 0.4-1.1 0.8c0.8-0.9 2.5-0.2 2.7 1 0.3 1.2-0.5 2.3-1.4 3.1-3.1 2.2-7.5 0.9-10.8-1.1-3.2-2-6.3-4.7-10.1-5.1-2-0.2-4 0.3-6.1 0.3-2 0-4.3-0.7-5.2-2.5-1.7-3.3 2.1-7.5 0.6-10.9z"/>
				<path id="&lt;Path&gt;" class="s1" d="m32.7 303.7q-1.3-1.9-2.9-3.6c1.7-2.4 4.2-4.1 6.9-5.2 2.8-1.1 5.7-1.5 8.6-1.7 0.1 0 0.3 0 0.4 0 0.1 0.1 0.2 0.3 0.2 0.5q0.6 2.1 1.3 4.2c-5.4-0.3-10.9 2-14.6 5.9z"/>
				<path id="&lt;Path&gt;" class="s1" d="m34.1 305.7c4.1-2.4 8.5-4.2 13.1-5.3 0.5-0.1 1-0.2 1.5-0.2 0.9 0.1 1.8 0.8 2 1.8-5.6 0.3-11.2 2.4-15.6 6-0.3-0.7-0.6-1.3-1.1-1.7z"/>
				<path id="&lt;Path&gt;" class="s1" d="m69.5 295.4q1.1-2.2 2.2-4.3c0.9-1.9 2-3.9 3.8-5 0.1-0.1 0.3-0.2 0.4-0.2 0.2 0 0.3 0.1 0.4 0.2q1.5 1.1 2.9 2.3 0.1 0 0.2 0.2c0 0.1-0.1 0.1-0.1 0.2-2.1 2.8-4.7 5.5-5.3 8.9q-2.3-0.9-4.7-1.9z"/>
				<path id="&lt;Path&gt;" class="s1" d="m82 301.3c0.7-3 1.7-5.8 3.2-8.5q1.3 0.4 2.5 0.8c-1.9 2.4-3.2 5.3-3.5 8.4q-1-0.3-1.8-0.8z"/>
				<path id="&lt;Path&gt;" class="s3" d="m63.9 79.9c-2.8 0-5.5-1.4-7.7-3.2-2.2-1.7-4.1-3.8-6.4-5.4-1.3-0.9-2.8-1.7-3.8-2.9-1.1-1.2-2.2-3.9-1.4-5.3 1.1 0.8 3 1.6 4.3 1.6 5.3 0 10.4-0.9 14.9 1.9z"/>
				<path id="&lt;Path&gt;" class="s4" d="m27.1 212c-1.2-5.4-0.4-11 0.4-16.5q1.2-8.7 2.5-17.5c0.1-1.1 0.4-2.5 1.5-3 0.7-0.2 1.4-0.1 2.1 0 5.8 1.2 12 2.5 15.9 6.9 1.5 1.7 2.6 3.7 3.5 5.7 1.8 4.4 2.9 9 3.1 13.7 0.2 3.5-0.1 7-0.4 10.4q-0.5 5.5-0.9 11c-0.5 5.1-0.9 10.2-1.7 15.3-0.5 2.9-1.1 5.9-1.3 8.8-0.1 3.2 0.3 6.5 0 9.7-0.7 10.9-8.1 21.1-6.1 31.8-4.1 3.1-15.9 0.5-15.8-0.3 0.6-5.4-1.9-10.3-1.8-14.7 0-3.9 0.2-7.7-0.3-11.5-0.4-2.6-1.2-5-1.7-7.5-2.7-13.4 1.6-27.2 1.5-40.8z"/>
				<path id="&lt;Path&gt;" class="s4" d="m59.6 222.1q1.3-6 2.5-11.9 9.1-1 18.2-2c1.3 10.5 2.6 21.4-0.4 31.5-1.4 4.7-0.1 9.4-1.2 14.1-0.7 3-1 6.1-1.2 9.2-0.5 5.4-1.3 10.5-1.7 15.9-0.2 1.7-0.2 3.6 0.9 4.8-4.5 3.3-13.9 1.4-19-0.5q0.2-8.6 0.3-17.1c0.1-2.6 0.1-5.1-0.2-7.6-0.3-2.8-1.1-5.6-1.4-8.5-0.3-3.2 0.1-6.6 0.5-9.9q0.8-7.1 1.6-14.2z"/>
				<path id="&lt;Path&gt;" class="s2" d="m67.7 32.7q0.6 9.6 1.1 19.1c0.1 2.3 0.2 4.6-0.7 6.6-0.9 2.1-3.6 4.4-5.7 3.7 0 2.1 0.3 3.5 0.3 5.7 0 0.4 0 0.9-0.3 1.3-0.1 0.3-0.9 8.7-1.2 8.9-3.9 2.8-9.3-5.6-12.9-8.8-0.6-0.4-1.1-1-1.3-1.6-0.3-0.7-0.3-1.4-0.3-2.1q-0.1-6.7-0.2-13.5c-0.7 1.5-2.9 2-4.3 1.1-1.5-0.8-2.2-2.6-2.3-4.3 0-1.5 0.4-3 1.6-3.9 1.2-0.9 3.2-0.8 3.9 0.5 0.2-4.3 1.5-12.7 1.5-12.7z"/>
				<g id="&lt;Group&gt;">
					<path id="&lt;Compound Path&gt;" fill-rule="evenodd" class="s1" d="m68.2 58.4c-0.9 1.9-2.4 3.5-3.9 5-1 0.9-2 2-3.3 2.5-1.7 0.6-3.5 0.2-5.3-0.2-1.3-0.4-2.7-0.9-3.9-1.7-3-1.9-4.7-5.6-5.4-9.2-0.8-3.6-0.8-7.3-1.3-11 1.2 0 1.6 1.7 1.8 3q0.3 3.4 1.4 6.7c0.6 1.9 1.9 4 3.7 3.7l-0.1-0.1c2.2-3.1 6.5-3.2 10.1-3.1 0.7 0 1.4 0.1 1.9 0.4 0.6 0.3 1 0.8 1.6 1 0.8 0.3 1.7-0.1 2.2-0.8 0.5-0.7 0.7-1.6 0.9-2.4 1 1.9 0.6 4.3-0.4 6.2zm-5.1-1.1c-0.5-0.4-1-0.7-1.6-1q-0.8-0.3-1.5-0.7c-0.3-0.1-0.5-0.2-0.8-0.1-0.2 0-0.4 0.2-0.5 0.4-0.7 0.6-1.7 0.9-2.6 1.3-0.9 0.4-1.7 1.1-2 2v0.2c-0.1 0.6 0.2 1.1 0.7 1.5 0.5 0.3 1 0.4 1.5 0.5 1.9 0.2 3.9-0.1 5.6-0.7 0.8-0.3 1.6-0.8 1.8-1.7 0.1-0.6-0.2-1.3-0.6-1.7z"/>
				</g>
				<path id="&lt;Path&gt;" class="s5" d="m80.2 145.3c0.2 3.3 10.4 81.8 10.4 81.8 0 0-10.7 0.7-17.7 1.5-6.9 0.9-6.7 4.9-9.1 4.9-1.5 0-16.8-0.6-28-1-0.1-17.6-1.6-35.2-3.8-52.7-0.6 17.6-2.5 35.1-5.7 52.3-1.5 0-2.4-0.1-2.4-0.1l1.2-84c0 0-11.3-11.5-11.3-16.4 0-4.9-0.2-38.7 5-47.2 5.3-8.4 6.2-8.6 11.6-10.6 5.5-2.2 12.2-6 12.2-6l2-4.7c2.8 4.3 7.5 7.4 12.6 8.3 0 1.7 0.5 3.4 1.4 4.9 0.7-1.6 1-3.5 0.9-5.3 1.9-0.8 3.5-2.4 4.3-4.4 2.4 2.5 5.3 4.5 8.3 6 2 0.9 4 1.6 5.8 2.8 2.2 1.4 3.8 3.3 5.2 5.4 5.8 9 5.8 20.4 7.9 30.9 1 5.3 2.6 10.4 3 15.8 0.6 9.1-2.2 16.8-5 25.6-2.2-3.6-8.8-7.8-8.8-7.8z"/>
				<path id="&lt;Path&gt;" class="s2" d="m87.3 150.5c0.1 0.1 0.3 0.2 0.3 0.3 0 0.2 0 0.3 0 0.5q-0.5 1.5-1 3c-0.9 2.5-1.7 5-3.2 7.1-1.6 2.2-4 3.9-6.6 3.9-0.6 0-1.3-0.2-1.3-0.7 0-0.4 0.2-0.7 0.4-0.9 1.2-1.3 2.6-2.3 4.1-3.1q-1.5 0.6-3 1.2c-0.7 0.2-1.6 0.3-1.8-0.4-0.1-0.2 0-0.4 0.1-0.6 0.9-2.2 3.3-3.6 4-5.9 0.7-1.8-0.2-4.1-2-5.1-0.7-0.3-1.5-0.5-2-1.1-0.6-0.6-0.6-1.7 0.1-2 0.3-0.1 0.6-0.1 0.9 0 1.5 0.2 3-1.7 4.4-1.4z"/>
				<path id="&lt;Path&gt;" class="s2" d="m51.9 157.9q3.4-3.7 6.8-7.4c0.3-0.4 0.7-0.9 1.3-1 0.4-0.1 0.8 0 1.3 0.1 4 0.7 8.3-0.1 11.8-2.3 1-0.7 2.4-1.5 3.3-0.6 1 0.9-0.1 2.5-1.2 3.3-1.8 1.4-4 2.3-6.3 2.7 3.5 3.8 8.5 5 13.2 6.7 0.9 0.3 2 1.3 1.3 2-0.2 0.3-0.6 0.3-0.9 0.4-3.2 0.4-6.4 0.5-9.3-0.6 0.8 1.8 3 2.1 4.8 3 1.6 0.8 2.9 1.1 4.4 2.5-0.1 0.8-1.3 0.7-2 0.8-3.2 0.3-6.2-0.2-9-1.7 2.6 0.7 5.4 1.1 8.1 1.9-3.6 1-7.8 0.2-11.2-1.3 1.1 0.7 2.5 2.8 3.6 3.4-0.6 0.9-0.9 0.8-1.8 0.4-5.6-2.1-11.8-5.8-15.9-10z"/>
				<path id="&lt;Path&gt;" class="s6" d="m70.4 55.5c1.2 3.2-0.9 4.1-0.9 4.1 0 3-1.9 3.3-1.9 3.3-1.9 8.7-10.1 10.1-10.1 10.1 0 0-8.2-1.4-10.1-10.1 0 0-1.9-0.3-1.9-3.3 0 0-2.1-0.9-0.9-4.1 1.2-3.1 2.9-9.7 0.5-10.7 0 0-1.7 0-0.9-4 0 0 0.5-3.2 0.1-4l5.3-0.7c0 0-3.2 3.3-2.6 6.3 0 0 0.9 5.2 1.1 9.8 0.2 4.6 2.3 5.8 4.7 3.8h0.8c0 0-1.4 2.2-0.3 3.5 1.2 1.2 1.5 0 4.2 0 2.7 0 3 1.2 4.2 0 1.1-1.3-0.3-3.5-0.3-3.5h0.8c2.4 2 4.5 0.8 4.7-3.8 0.2-4.6 1.1-9.8 1.1-9.8 0.6-3-2.6-6.3-2.6-6.3l5.3 0.7c-0.4 0.8 0.1 4 0.1 4 0.8 4-0.9 4-0.9 4-2.4 1-0.7 7.6 0.5 10.7z"/>
				<path id="&lt;Path&gt;" class="s1" d="m70.4 55.5c1.2 3.2-0.9 4.1-0.9 4.1 0 3-1.9 3.3-1.9 3.3-1.9 8.7-10.1 10.1-10.1 10.1 0 0-8.2-1.4-10.1-10.1 0 0-1.9-0.3-1.9-3.3 0 0-2.1-0.9-0.9-4.1 1.2-3.1 2.9-9.7 0.5-10.7 0 0-1.7 0-0.9-4 0 0 0.1-0.6 0.2-1.3l2.7 3.5c0.1 0.4 0.2 1 0.3 1.8-0.3 0.3-0.5 0.7-0.4 1.2 0.3 1.1-0.1 7.7-1.2 10.3 0 0 0.3 2.5 1.8 2.2 0 0-0.7 2.9 1.7 3.3 0 0 1.8 8 8.2 7.8 6.4 0.2 8.2-7.8 8.2-7.8 2.4-0.4 1.7-3.3 1.7-3.3 1.5 0.3 1.8-2.2 1.8-2.2-1.1-2.6-1.4-9.2-1.2-10.3 0.1-0.5-0.1-0.9-0.4-1.2 0.1-0.8 0.2-1.4 0.3-1.8l2.7-3.5c0.1 0.7 0.2 1.3 0.2 1.3 0.8 4-0.9 4-0.9 4-2.4 1-0.7 7.6 0.5 10.7z"/>
				<g id="&lt;Group&gt;">
					<path id="&lt;Path&gt;" class="s1" d="m68 152c1.4 1.2 3 2.2 4.6 3q2.5 1.4 5.1 2.4 1.2 0.5 2.4 0.9c0.9 0.3 1.8 0.5 2.7 0.9 0.4 0.2 0.8 0.5 1.2 0.8 0.3 0.4 0.3 0.9-0.1 1.2-0.2 0.1-0.3 0.1-0.5 0.1q-0.5 0.1-0.9 0.2-0.8 0.2-1.7 0.2c-2.5 0.3-5 0.3-7.5-0.1q0.1-0.2 0.2-0.5c2.1 2.3 5.3 2.6 7.9 4.1q0.4 0.3 0.9 0.6c0.2 0.2 0.6 0.5 0.8 0.8 0.1 0.4-0.1 0.7-0.4 0.9-0.3 0.2-0.7 0.2-1.1 0.1q-2.8 0-5.5-0.7c-2.1-0.6-4-1.4-5.9-2.5-0.3-0.1 0-0.6 0.3-0.4 3.1 1.7 6.5 2.8 10 3q0.7 0.1 1.3 0.1c0.2 0 0.8 0 0.8-0.2 0-0.2-0.3-0.3-0.4-0.4q-0.2-0.2-0.4-0.3-0.4-0.4-0.9-0.6c-1.2-0.7-2.5-1.1-3.8-1.6-1.5-0.6-2.9-1.3-3.9-2.5-0.2-0.2 0-0.5 0.2-0.4q3.2 0.5 6.5 0.2 1.6-0.1 3.1-0.5c0.2 0 0.5 0 0.6-0.1 0.2-0.2-0.1-0.4-0.2-0.5q-0.6-0.4-1.2-0.6c-0.8-0.4-1.7-0.6-2.5-0.9q-1.2-0.3-2.4-0.8-2.4-1-4.8-2.3c-1.7-0.9-3.4-1.9-4.9-3.2-0.2-0.2 0.1-0.6 0.4-0.4z"/>
				</g>
				<g id="&lt;Group&gt;">
					<path id="&lt;Path&gt;" class="s1" d="m80.3 167.5c-2.9 1.9-6.4 1.3-9.4 0.1q-1.4-0.5-2.7-1.2c-0.3-0.1 0-0.6 0.3-0.4 2.8 1.3 6 2.6 9.2 2q1.2-0.3 2.3-1c0.3-0.2 0.6 0.3 0.3 0.5z"/>
				</g>
				<g id="&lt;Group&gt;">
					<path id="&lt;Path&gt;" class="s1" d="m72.7 161.3q-2.5 3.1-5.3 5.9c-0.2 0.3-0.6-0.1-0.3-0.4q2.7-2.8 5.2-5.8c0.2-0.3 0.6 0.1 0.4 0.3z"/>
				</g>
				<g id="&lt;Group&gt;">
					<path id="&lt;Path&gt;" class="s1" d="m68.4 166.5q1.4 1.2 2.8 2.3 0.3 0.3 0.7 0.6c0.2 0.1 0.3 0.3 0.3 0.5 0 0.4-0.4 0.6-0.8 0.5-1.5-0.1-3.1-0.7-4.6-1.3-0.6-0.3-1.2-0.6-1.8-0.9-0.3-0.2-0.1-0.7 0.3-0.5 1 0.6 2.2 1.1 3.4 1.5q1 0.3 2.1 0.6 0.2 0 0.4 0.1c0.1 0 0.3 0 0.4 0q0.1 0 0.1 0c0 0-0.2-0.1-0.2-0.2q-0.4-0.2-0.7-0.5-1.4-1.1-2.8-2.3c-0.2-0.2 0.2-0.6 0.4-0.4z"/>
				</g>
				<g id="&lt;Group&gt;">
					<path id="&lt;Path&gt;" class="s1" d="m81.2 150.4c0.1 0.6-0.2 1.2-0.4 1.8q-0.4 0.9-0.8 1.8-0.9 1.8-1.9 3.5c-0.2 0.3-0.7 0-0.5-0.3q1-1.6 1.8-3.2 0.4-0.9 0.8-1.7 0.1-0.4 0.3-0.8c0.1-0.3 0.2-0.7 0.1-1-0.1-0.3 0.5-0.5 0.6-0.1z"/>
				</g>
				<g id="&lt;Group&gt;">
					<path id="&lt;Path&gt;" class="s1" d="m83.6 156.8q-0.6 1.3-1.7 2.2c-0.1 0.1-0.3 0.1-0.4 0-0.1-0.1-0.1-0.3 0-0.4q1-0.9 1.6-2.1c0.1-0.1 0.3-0.1 0.4-0.1 0.1 0.1 0.2 0.3 0.1 0.4z"/>
				</g>
				<g id="&lt;Group&gt;">
					<path id="&lt;Path&gt;" class="s1" d="m78.2 162.2c-0.3 0.2-0.6 0.4-0.9 0.7q-0.4 0.3-0.8 0.8c-0.1 0.1-0.3 0.1-0.4 0-0.1-0.1-0.1-0.3 0-0.4q0.8-0.9 1.8-1.6c0.1-0.1 0.3 0 0.4 0.1 0.1 0.1 0 0.3-0.1 0.4z"/>
				</g>
				<g id="&lt;Group&gt;">
					<path id="&lt;Path&gt;" class="s1" d="m64.2 149.6q2.6-0.3 5.2-1.1 1.2-0.4 2.4-0.9c0.8-0.3 1.6-0.7 2.3-1 0.7-0.3 1.5-0.5 2.2-0.1 0.6 0.5 0.7 1.3 0.5 1.9-0.2 0.8-0.8 1.4-1.4 1.9-0.6 0.5-1.3 0.9-2 1.3q-1.2 0.6-2.4 0.9c-0.8 0.3-1.6 0.5-2.4 0.7-0.3 0.1-0.5-0.4-0.1-0.5 1.3-0.4 2.6-0.7 3.9-1.2q1-0.5 2-1.1c0.6-0.4 1.2-0.9 1.6-1.5 0.3-0.6 0.6-1.4 0-1.9-0.5-0.5-1.4-0.1-1.9 0.2-1.5 0.7-3 1.3-4.5 1.8q-2.6 0.8-5.4 1.2c-0.3 0-0.3-0.6 0-0.6z"/>
				</g>
				<g id="&lt;Group&gt;">
					<path id="&lt;Path&gt;" class="s7" d="m66.2 70.7c-2.1 3-5 5.6-8.6 6.5-1.8 0.5-3.7 0.4-5.4-0.2-1.8-0.5-3.5-1.5-4.9-2.6-1.7-1.3-3.3-2.8-4.7-4.4-0.4-0.4 0.2-0.9 0.5-0.6 2.5 2.6 5.2 5.3 8.5 6.6 1.7 0.6 3.4 0.9 5.1 0.6 1.7-0.3 3.3-1.1 4.7-2.1 1.6-1.1 3-2.6 4-4.3 0.3-0.4 1.1 0 0.8 0.5z"/>
				</g>
				<g id="&lt;Group&gt;">
					<path id="&lt;Path&gt;" class="s7" d="m62 147.8q-5.1 5.9-10.2 11.9-1.4 1.6-2.9 3.3c-0.1 0.1-0.3 0.1-0.5 0q-2.8-1.4-5.6-3-3.1-1.6-6.1-3.5-3.1-1.9-6.1-4-3-2.2-5.8-4.7c-1.8-1.6-3.5-3.4-5-5.3q-0.3-0.4-0.6-0.8c-0.2-0.2-0.1-0.5 0.1-0.6 0.2-0.1 0.4 0 0.6 0.2 1.5 1.9 3.1 3.7 4.9 5.4q2.7 2.5 5.6 4.6 3 2.2 6.1 4.1 3 1.8 6 3.5 2.9 1.6 5.7 3.1 0.3 0.2 0.7 0.3-0.3 0.1-0.5 0.1 5.1-5.9 10.2-11.8 1.4-1.7 2.9-3.4c0.3-0.4 0.9 0.2 0.5 0.6z"/>
				</g>
				<g id="&lt;Group&gt;">
					<path id="&lt;Path&gt;" class="s7" d="m61 144.6c-2.7-1.2-5.4-2.6-7.9-4.2-2.5-1.6-4.9-3.3-7.3-5.1-2.4-1.7-4.7-3.6-7.1-5.5-1.1-0.8-2.2-1.6-3.5-2.1-1.2-0.5-2.5-0.8-3.8-0.9-2.5-0.2-5.1 0.2-7.4 1.4q-0.4 0.3-0.8 0.5c-0.4 0.3-0.9-0.4-0.4-0.7 2.2-1.4 4.9-2.1 7.5-2.1 2.7 0 5.4 0.8 7.6 2.3 1.3 0.9 2.4 1.9 3.6 2.8q1.8 1.4 3.6 2.8c2.4 1.8 4.9 3.6 7.4 5.2 2.5 1.6 5.1 3.1 7.9 4.4q0.5 0.3 1 0.5c0.2 0.1 0.2 0.4 0.1 0.6-0.1 0.2-0.3 0.2-0.5 0.1z"/>
				</g>
				<g id="&lt;Group&gt;">
					<path id="&lt;Path&gt;" class="s7" d="m33.7 126.4c-2.9-1.1-5.9-1.8-9-2q-1.3-0.1-2.7 0c-0.5 0-0.5-0.8 0-0.8 3.2-0.1 6.4 0.2 9.4 1.1q1.3 0.4 2.5 0.9c0.2 0 0.4 0.2 0.3 0.5 0 0.2-0.3 0.3-0.5 0.3z"/>
				</g>
				<g id="&lt;Group&gt;">
					<path id="&lt;Path&gt;" class="s7" d="m28.5 78.4c2 2.1 3.5 4.6 4.5 7.2 1.1 2.7 1.7 5.6 2.1 8.4 0.5 3.3 0.8 6.6 1 10q0.3 5.3 0.1 10.7-0.1 5.3-0.7 10.6 0 0.6-0.1 1.3c0 0.2-0.2 0.4-0.4 0.4-0.2 0-0.5-0.2-0.4-0.4q0.6-5.2 0.8-10.5 0.2-5.3-0.1-10.6c-0.1-3.4-0.4-6.7-0.8-10.1-0.4-2.8-0.9-5.6-1.8-8.3-0.9-2.7-2.2-5.2-4-7.3q-0.4-0.4-0.7-0.8c-0.4-0.4 0.2-1 0.5-0.6z"/>
				</g>
				<g id="&lt;Group&gt;">
					<path id="&lt;Path&gt;" class="s7" d="m80.6 79.4c-0.3 4.3-0.3 8.7-0.1 13 0.3 4.3 0.7 8.7 1.1 13 0.4 4.4 0.9 8.7 1.3 13.1 0.3 4.3 0.6 8.7 0.5 13 0 2.2-0.1 4.3-0.3 6.4-0.2 2-0.5 3.9-1.3 5.8q-0.2 0.6-0.6 1.3c-0.3 0.4-1 0-0.7-0.4 1-1.7 1.4-3.7 1.7-5.6 0.2-2.1 0.3-4.2 0.4-6.3 0.1-4.3-0.1-8.6-0.4-12.9-0.4-4.3-0.8-8.6-1.3-12.9-0.4-4.3-0.9-8.7-1.1-13-0.3-4.3-0.4-8.6-0.1-12.9q0-0.8 0.1-1.6c0-0.5 0.8-0.6 0.8 0z"/>
				</g>
				<g id="&lt;Group&gt;">
					<path id="&lt;Path&gt;" class="s7" d="m88.5 152.5c-1.6-2.1-3.5-4-5.7-5.6q-0.9-0.6-1.9-1.2c-0.5-0.3-0.1-1 0.4-0.7 2.4 1.4 4.6 3.2 6.4 5.3q0.8 0.9 1.6 1.8c0.1 0.2 0 0.5-0.2 0.6-0.2 0.1-0.4 0-0.6-0.2z"/>
				</g>
				<g id="&lt;Group&gt;">
					<path id="&lt;Path&gt;" class="s7" d="m58.9 79.8q-0.1 10.9 0.2 21.9 0.2 10.9 0.8 21.8 0.4 6.2 0.8 12.3c0 0.5-0.8 0.5-0.8 0q-0.8-10.9-1.3-21.9-0.4-10.9-0.5-21.8-0.1-6.2 0-12.3c0-0.6 0.8-0.6 0.8 0z"/>
				</g>
				<g id="&lt;Group&gt;">
					<path id="&lt;Path&gt;" class="s7" d="m62.2 166.4q1.3 11.7 2.3 23.4 1 11.8 1.7 23.5 0.4 6.6 0.7 13.2c0 0.6-0.8 0.6-0.8 0q-0.5-11.7-1.4-23.4-0.8-11.8-2-23.5-0.6-6.6-1.3-13.2c-0.1-0.2 0.2-0.4 0.4-0.4 0.2 0 0.4 0.2 0.4 0.4z"/>
				</g>
				<g id="&lt;Group&gt;">
					<path id="&lt;Path&gt;" class="s7" d="m86.6 223.6c-3 0.1-6 0.2-9 0.5-2.9 0.4-5.8 0.9-8.5 2q-2.1 0.8-4 1.9c-1.3 0.8-2.6 1.6-4.1 2-1.5 0.5-3.1 0.6-4.6 0.5-1.7 0-3.3-0.2-4.9-0.3q-5.1-0.4-10.1-0.9-0.6 0-1.3-0.1c-0.5 0-0.5-0.8 0-0.8q5.1 0.4 10.2 0.9c1.6 0.1 3.3 0.3 4.9 0.4 1.6 0.1 3.1 0.1 4.7-0.2 1.5-0.3 2.8-1 4.1-1.8 1.3-0.8 2.6-1.5 4-2.1 2.7-1.1 5.6-1.8 8.5-2.2 3-0.4 6-0.5 9-0.6q0.5 0 1.1 0c0.5-0.1 0.5 0.8 0 0.8z"/>
				</g>
				<g id="&lt;Group&gt;">
					<path id="&lt;Path&gt;" class="s7" d="m39.9 223.2q-0.2-4.6-0.6-9.3-0.4-4.6-1-9.2-0.6-4.6-1.4-9.2-0.9-4.6-1.9-9.2-1-4.5-2.3-9-0.1-0.6-0.3-1.1 0.4 0 0.8 0-1.3 5.4-2.3 10.9-1 5.5-1.7 11.1-0.4 3.1-0.6 6.2c-0.1 0.5-0.9 0.6-0.9 0q0.5-5.6 1.3-11.2 0.9-5.6 2-11.1 0.7-3.1 1.4-6.1c0.1-0.4 0.7-0.4 0.8 0q1.3 4.5 2.3 9 1.1 4.6 2 9.2 0.8 4.6 1.4 9.2 0.7 4.7 1.1 9.3 0.5 4.7 0.7 9.3 0 0.6 0.1 1.2c0 0.5-0.8 0.5-0.9 0z"/>
				</g>
				<g id="&lt;Group&gt;">
					<path id="&lt;Path&gt;" class="s7" d="m55.9 142.3q-5.7 6.4-11.4 12.7-1.7 1.9-3.3 3.7c-0.3 0.4-0.9-0.2-0.6-0.6q5.7-6.4 11.4-12.7 1.6-1.8 3.3-3.6c0.3-0.4 0.9 0.1 0.6 0.5z"/>
				</g>
				<g id="&lt;Group&gt;">
					<path id="&lt;Path&gt;" class="s7" d="m57.4 146.6c0.4 0.6 0.5 1.4 0.2 2-0.3 0.7-1 1.1-1.7 1.1-0.7-0.1-1.4-0.5-1.7-1.3-0.1-0.1-0.1-0.4-0.1-0.6q0.1-0.2 0.3-0.4 0.3-0.4 0.8-0.7c0.7-0.3 1.5-0.3 2.2 0.3 0.2 0.1 0.1 0.4 0 0.5-0.2 0.2-0.4 0.2-0.6 0 0.1 0.1 0 0 0 0q-0.1 0-0.1 0 0 0-0.1-0.1c0 0-0.1 0 0 0q-0.1 0-0.2 0 0 0 0 0-0.1-0.1-0.1-0.1 0.1 0.1 0 0-0.2 0-0.3 0c0 0-0.1 0.1 0 0q-0.1 0.1-0.1 0.1-0.1 0-0.2 0-0.1 0-0.1 0c-0.1 0.1 0 0 0 0q-0.1 0.1-0.2 0.1 0 0.1-0.1 0.1c-0.1 0.1 0 0 0 0q-0.1 0.1-0.1 0.1-0.1 0.1-0.1 0.1c-0.1 0.1 0 0-0.1 0.1q0 0 0 0 0 0.1-0.1 0.2c0 0 0-0.1 0 0q0-0.2 0-0.1 0 0 0 0 0.1 0.1 0.1 0.1c0 0.1 0 0.2 0 0.1q0 0 0.1 0.1 0 0.1 0 0.1c0.1 0.1-0.1-0.1 0 0q0.1 0.1 0.2 0.2 0 0 0 0c0 0 0.1 0 0.1 0q0 0.1 0.1 0.1 0.1 0.1 0.1 0.1c-0.1-0.1 0 0 0 0q0.1 0 0.2 0 0.1 0 0.1 0.1c-0.1-0.1 0 0 0 0q0.1 0 0.2 0c0.1 0-0.1 0 0.1 0q0-0.1 0-0.1 0.1 0 0.1 0c0 0 0.2-0.1 0.1 0q0 0 0.1-0.1c0 0 0.1-0.1 0 0q0.1 0 0.1-0.1 0.1 0 0.1-0.1c0 0.1 0 0 0 0q0.1 0 0.1-0.1 0 0 0-0.1c0 0 0.1-0.1 0.1 0q0-0.1 0-0.2 0-0.1 0-0.1 0.1 0 0.1-0.1-0.1 0.1 0 0 0 0 0-0.1 0-0.1 0-0.1 0-0.1 0-0.1 0 0.1 0 0-0.1-0.1-0.1-0.2c0 0 0-0.1 0 0q0-0.1-0.1-0.1 0 0 0-0.1 0 0 0 0 0 0 0 0c-0.2-0.2-0.2-0.4 0-0.6 0.1-0.1 0.4-0.2 0.6 0z"/>
				</g>
				<g id="&lt;Group&gt;">
					<path id="&lt;Path&gt;" class="s7" d="m89.1 145.1c0.5 0.6 0.6 1.4 0.3 2.1-0.3 0.6-1 1.1-1.7 1-0.8 0-1.4-0.5-1.7-1.2-0.1-0.2-0.2-0.4-0.1-0.6q0.1-0.2 0.2-0.5 0.4-0.4 0.8-0.6c0.8-0.3 1.6-0.3 2.3 0.2 0.1 0.1 0.1 0.5 0 0.6-0.2 0.2-0.4 0.1-0.6 0 0.1 0.1 0 0 0 0q-0.1 0-0.1-0.1-0.1 0-0.1 0c0 0-0.1-0.1 0 0q-0.1 0-0.2-0.1 0 0-0.1 0 0 0 0 0 0.1 0 0 0-0.2 0-0.3 0c-0.1 0-0.2 0-0.1 0q0 0 0 0-0.2 0-0.3 0.1 0 0 0 0c-0.1 0 0 0 0 0q-0.1 0-0.2 0.1-0.1 0-0.1 0.1c-0.1 0 0-0.1-0.1 0q0 0 0 0.1-0.1 0-0.2 0.1c0 0.1 0.1-0.1 0 0q0 0 0 0.1-0.1 0-0.1 0.1c0 0.1 0-0.1 0 0q0-0.2 0-0.1 0 0.1 0 0.1 0 0 0 0.1c0.1 0 0.1 0.1 0 0q0.1 0.1 0.1 0.2 0.1 0 0.1 0c0 0.1-0.1 0 0 0.1q0.1 0 0.1 0.1 0.1 0.1 0.1 0.1c-0.1-0.1 0 0 0 0q0.1 0 0.2 0.1 0.1 0 0.1 0c-0.1 0 0 0 0 0q0.1 0.1 0.2 0.1 0.1 0 0.1 0c-0.1 0 0 0 0 0q0.1 0 0.2 0c0.1 0-0.1 0 0 0q0.1 0 0.1 0 0.1 0 0.1 0c0 0 0.1-0.1 0 0q0.1-0.1 0.2-0.1c0-0.1 0.1-0.1 0 0q0-0.1 0.1-0.1 0-0.1 0.1-0.1c-0.1 0 0 0 0-0.1q0 0 0.1 0 0-0.1 0-0.1c0 0 0.1-0.2 0-0.1q0.1-0.1 0.1-0.2 0 0 0-0.1 0 0 0 0 0 0.1 0 0 0-0.1 0-0.2 0 0 0-0.1 0 0 0 0 0 0.1 0 0 0-0.1 0-0.2c0 0-0.1-0.1 0 0q0-0.1-0.1-0.1 0-0.1 0-0.1 0-0.1-0.1-0.1 0.1 0.1 0 0c-0.1-0.1-0.1-0.4 0-0.6 0.2-0.1 0.5-0.1 0.6 0z"/>
				</g>
				<g id="&lt;Group&gt;">
					<path id="&lt;Path&gt;" class="s7" d="m52.8 150.9c0.5 0.6 0.6 1.4 0.3 2.1-0.3 0.6-1 1.1-1.7 1-0.7 0-1.4-0.5-1.7-1.2-0.1-0.2-0.1-0.4-0.1-0.6q0.1-0.3 0.3-0.5 0.3-0.4 0.7-0.6c0.8-0.4 1.6-0.3 2.3 0.2 0.1 0.1 0.1 0.4 0 0.6-0.2 0.1-0.4 0.1-0.6 0 0.1 0 0 0 0 0q-0.1-0.1-0.1-0.1 0 0-0.1 0c0 0-0.1-0.1 0 0q-0.1-0.1-0.2-0.1 0 0-0.1 0 0 0 0 0 0.1 0 0 0-0.2 0-0.3 0c-0.1 0-0.2 0 0 0q-0.1 0-0.1 0-0.1 0-0.2 0-0.1 0.1-0.1 0.1c-0.1 0 0-0.1 0 0q-0.1 0-0.2 0.1-0.1 0-0.1 0.1c-0.1 0 0-0.1 0 0q-0.1 0-0.1 0-0.1 0.1-0.2 0.2c0 0.1 0.1-0.1 0 0q0 0 0 0 0 0.1-0.1 0.2c0 0.1 0-0.1 0 0q0-0.2 0-0.1 0 0 0 0.1 0 0 0.1 0.1c0 0 0 0.1 0 0q0 0.1 0 0.2 0.1 0 0.1 0c0 0.1-0.1 0 0 0q0.1 0.1 0.2 0.2 0 0 0 0.1c-0.1-0.1 0 0 0.1 0q0 0 0.1 0.1 0.1 0 0.1 0c-0.1 0 0 0 0 0q0.1 0 0.2 0.1 0.1 0 0.1 0c-0.1 0 0 0 0 0q0.1 0 0.2 0c0.1 0-0.1 0 0 0q0.1 0 0.1 0 0.1 0 0.1-0.1c0 0 0.1 0 0 0q0.1 0 0.2-0.1c0 0 0.1 0 0 0q0.1 0 0.1 0 0.1-0.1 0.1-0.2c-0.1 0.1 0 0 0 0q0 0 0.1-0.1 0 0 0 0c0-0.1 0.1-0.2 0-0.1q0.1-0.1 0.1-0.2 0 0 0-0.1 0 0 0 0 0 0.1 0 0 0-0.1 0-0.2 0 0 0-0.1 0 0 0-0.1 0.1 0.1 0 0.1 0-0.1 0-0.2c0-0.1-0.1-0.2 0-0.1q0 0-0.1-0.1 0 0 0 0 0-0.1-0.1-0.1 0.1 0.1 0.1 0c-0.2-0.2-0.2-0.4 0-0.6 0.1-0.1 0.4-0.2 0.5 0z"/>
				</g>
				<g id="&lt;Group&gt;">
					<path id="&lt;Path&gt;" class="s7" d="m48.3 156.2c0.5 0.5 0.6 1.3 0.3 2-0.3 0.7-1 1.1-1.7 1-0.8 0-1.4-0.5-1.7-1.2-0.1-0.2-0.2-0.4-0.1-0.6q0.1-0.2 0.2-0.4 0.4-0.5 0.8-0.7c0.8-0.3 1.6-0.3 2.3 0.2 0.1 0.2 0.1 0.5 0 0.6-0.2 0.2-0.4 0.1-0.6 0 0.1 0.1 0 0 0 0q-0.1 0-0.1-0.1-0.1 0-0.1 0c0 0-0.1 0 0 0q-0.1 0-0.2-0.1 0 0-0.1 0 0 0 0 0 0.1 0 0 0-0.2 0-0.3 0c-0.1 0-0.2 0-0.1 0q0 0-0.1 0-0.1 0.1-0.2 0.1 0 0 0 0c-0.1 0 0 0 0 0q-0.1 0.1-0.2 0.1-0.1 0-0.1 0.1c-0.1 0 0-0.1-0.1 0q0 0-0.1 0.1 0 0-0.1 0.1c0 0.1 0.1-0.1 0 0q0 0 0 0.1-0.1 0.1-0.1 0.1c0 0.1 0 0 0 0q0-0.2 0 0 0 0 0 0 0 0.1 0 0.1c0 0 0.1 0.1 0 0q0.1 0.1 0.1 0.2 0.1 0 0.1 0.1c0 0-0.1-0.1 0 0q0.1 0.1 0.1 0.1 0.1 0.1 0.1 0.1c-0.1-0.1 0 0 0 0q0.1 0.1 0.2 0.1 0 0 0.1 0c-0.1 0 0 0 0 0q0.1 0.1 0.2 0.1 0 0 0.1 0c-0.1 0 0 0 0 0q0.1 0 0.2 0c0.1 0-0.1 0 0 0q0.1 0 0.1 0 0 0 0.1 0c0 0 0.1-0.1 0 0q0.1-0.1 0.2-0.1c0 0 0.1-0.1 0 0q0-0.1 0.1-0.1 0-0.1 0.1-0.1c-0.1 0.1 0 0 0 0q0-0.1 0.1-0.1 0-0.1 0-0.1c0 0 0.1-0.1 0 0q0.1-0.1 0.1-0.2 0-0.1 0-0.1 0-0.1 0-0.1 0 0.1 0 0 0-0.1 0-0.2 0 0 0-0.1 0 0 0 0 0 0.1 0 0 0-0.1 0-0.2c0 0-0.1-0.1 0 0q-0.1-0.1-0.1-0.1 0-0.1 0-0.1 0 0-0.1-0.1 0.1 0.1 0 0c-0.1-0.1-0.1-0.4 0-0.5 0.2-0.2 0.5-0.2 0.6 0z"/>
				</g>
				<g id="&lt;Group&gt;">
					<path id="&lt;Path&gt;" class="s7" d="m90.4 145.4q-3.5-1.8-7-3.7c-0.5-0.2 0-0.9 0.4-0.7q3.5 1.8 7.1 3.7c0.4 0.2 0 0.9-0.5 0.7z"/>
				</g>
				<g id="&lt;Group&gt;">
					<path id="&lt;Path&gt;" class="s7" d="m83.2 120.6c1.8-0.5 3.8-0.5 5.7 0 0.5 0.1 0.3 0.9-0.2 0.8-1.7-0.5-3.6-0.5-5.3 0-0.5 0.2-0.8-0.6-0.2-0.8z"/>
				</g>
				<g id="&lt;Group&gt;">
					<path id="&lt;Path&gt;" class="s7" d="m84.5 123.6q2.4 0.8 4.8 1.7c0.2 0.1 0.4 0.3 0.3 0.5 0 0.2-0.3 0.4-0.5 0.3q-2.4-0.9-4.8-1.7c-0.2-0.1-0.4-0.3-0.3-0.5 0-0.2 0.3-0.4 0.5-0.3z"/>
				</g>
				<g id="&lt;Group&gt;">
					<path id="&lt;Path&gt;" class="s7" d="m76.4 105.9q-7.1 1.8-14.2 3.7-7.1 1.9-14.1 3.9-4 1.1-7.9 2.2c-0.5 0.2-0.8-0.6-0.3-0.8q7.1-2 14.1-4 7.1-1.9 14.1-3.7 4-1.1 8-2.1c0.6-0.1 0.8 0.7 0.3 0.8z"/>
				</g>
				<g id="&lt;Group&gt;">
					<path id="&lt;Path&gt;" class="s7" d="m73 112q-4.9 0.9-9.9 1.8-4.9 0.8-9.9 1.7-2.8 0.5-5.6 1c-0.2 0-0.4-0.1-0.5-0.3 0-0.2 0.1-0.5 0.3-0.5q5-0.9 9.9-1.8 4.9-0.8 9.9-1.7 2.8-0.5 5.6-1c0.2 0 0.4 0.1 0.5 0.3 0.1 0.2-0.1 0.5-0.3 0.5z"/>
				</g>
				<g id="&lt;Group&gt;">
					<path id="&lt;Path&gt;" class="s8" d="m44.5 50.3q-1.1-0.9-2.1-1.9c-0.2-0.2-0.2-0.5 0-0.6 0.1-0.2 0.4-0.2 0.6 0q1 1 2 2c0.2 0.1 0.2 0.4 0 0.5-0.1 0.2-0.4 0.2-0.5 0z"/>
				</g>
				<g id="&lt;Group&gt;">
					<path id="&lt;Path&gt;" class="s8" d="m43.8 49.7q-0.3 0.5-0.6 0.9-0.1 0.2-0.2 0.2c-0.1 0.1-0.2 0.1-0.3 0-0.2-0.1-0.3-0.4-0.2-0.6q0.3-0.4 0.6-0.9 0.1-0.1 0.2-0.2c0.1 0 0.2 0 0.3 0.1 0.2 0.1 0.3 0.3 0.2 0.5z"/>
				</g>
				<g id="&lt;Group&gt;">
					<path id="&lt;Path&gt;" class="s8" d="m60.9 57.5c-0.8 0.6-2 0.4-2.7-0.3-0.1-0.2-0.1-0.4 0-0.6 0.2-0.1 0.5-0.1 0.6 0q0.1 0.1 0.1 0.1 0.1 0.1 0.1 0.1c0 0 0.1 0 0 0 0 0 0 0 0 0q0.1 0 0.1 0 0 0.1 0.1 0.1 0 0 0.1 0.1c0 0-0.1-0.1 0-0.1q0 0.1 0.1 0.1 0.1 0 0.1 0 0.1 0 0.1 0c0 0.1 0.1 0 0 0 0.1 0 0.2 0.1 0.3 0.1 0 0 0.1 0 0.1-0.1 0 0.1-0.1 0.1 0 0q0 0 0.1 0 0 0 0.1 0 0.1 0 0.1-0.1c0 0.1 0 0.1 0 0q0.1 0 0.1 0 0 0 0.1-0.1c0.2-0.1 0.5 0 0.6 0.2 0.1 0.2 0 0.4-0.2 0.5z"/>
				</g>
				<g id="&lt;Group&gt;">
					<path id="&lt;Path&gt;" class="s8" d="m59.7 41.9c1.6 2.3 2.4 5.1 2.4 7.9q0 1.2-0.2 2.4c-0.1 0.1-0.3 0.3-0.4 0.3-0.9-0.1-1.7-0.4-2.4-1-0.2-0.1-0.3-0.3-0.2-0.5 0.1-0.2 0.4-0.3 0.6-0.2 0.6 0.5 1.2 0.8 2 0.9q-0.2 0.1-0.4 0.3c0.4-2.6 0.1-5.3-1-7.7q-0.5-1-1.1-2c-0.3-0.4 0.4-0.8 0.7-0.4z"/>
				</g>
				<path id="&lt;Path&gt;" class="s1" d="m53.6 45.2c0.5 0 1 0.5 1 1.2 0 0.7-0.4 1.3-0.9 1.3-0.5 0-1-0.5-1-1.2-0.1-0.7 0.4-1.3 0.9-1.3z"/>
				<path id="&lt;Path&gt;" class="s1" d="m63.9 45.5c0.5-0.1 1 0.5 1 1.2 0 0.7-0.4 1.3-0.9 1.3-0.5 0-1-0.5-1-1.2 0-0.7 0.4-1.3 0.9-1.3z"/>
				<path id="&lt;Path&gt;" class="s1" d="m55.5 41.2c0.5 0.2 0.4 0.9 0 1.1-0.3 0.3-0.9 0.1-1.3-0.1-0.4-0.2-0.8-0.5-1.2-0.5-0.8-0.2-1.6 0.4-2.2 0.9 0.1-1.1 0.9-2 2-2.3 1-0.3 2.2 0.1 2.9 0.9z"/>
				<path id="&lt;Path&gt;" class="s1" d="m61.8 41.7c0.6-1 1.7-1.4 2.8-1.2 1 0.2 1.9 1.1 2.1 2.1-0.6-0.5-1.4-0.9-2.2-0.7-0.5 0.1-0.8 0.4-1.2 0.7-0.4 0.2-0.9 0.4-1.3 0.2-0.4-0.2-0.5-1-0.1-1.1z"/>
				<g id="&lt;Group&gt;">
					<path id="&lt;Path&gt;" class="s9" d="m75.5 278.4c-4.6 1-9.3 1.5-13.9 0.6q-1.9-0.3-3.7-1c-0.3-0.1-0.4-0.3-0.3-0.5 0-0.2 0.3-0.4 0.5-0.3 4.2 1.6 8.9 1.7 13.4 1.1q1.9-0.3 3.8-0.7c0.5-0.1 0.7 0.7 0.2 0.8z"/>
				</g>
				<g id="&lt;Group&gt;">
					<path id="&lt;Path&gt;" class="s9" d="m45.5 281.8c-3.9 1.4-8 1.1-11.9 0.4q-1.7-0.3-3.4-0.7c-0.5-0.1-0.3-0.9 0.2-0.8 3.8 0.8 7.8 1.6 11.7 1.1q1.6-0.2 3.1-0.8c0.2 0 0.5 0.1 0.5 0.3 0.1 0.3 0 0.5-0.2 0.5z"/>
				</g>
				<g id="&lt;Group&gt;">
					<path id="&lt;Path&gt;" class="s9" d="m51.2 250.9c-2-1.4-4.1-2.4-6.4-3.2-0.5-0.1-0.3-0.9 0.2-0.8 2.4 0.8 4.6 1.9 6.6 3.3 0.2 0.1 0.2 0.3 0.1 0.5-0.1 0.2-0.4 0.3-0.5 0.2z"/>
				</g>
				<g id="&lt;Group&gt;">
					<path id="&lt;Path&gt;" class="s9" d="m49 251.3q-1.9-0.4-3.8-0.9c-0.6-0.1-0.3-0.9 0.2-0.8q1.9 0.5 3.9 0.9c0.5 0.2 0.3 1-0.3 0.8z"/>
				</g>
				<g id="&lt;Group&gt;">
					<path id="&lt;Path&gt;" class="s9" d="m67.8 233.1c-0.3 3 0.1 6 0.4 9q0.5 4.4 0.7 8.8c0.2 5.9-0.1 11.8-0.7 17.6q-0.6 4.9-1.5 9.8c-0.1 0.5-0.9 0.3-0.8-0.2q1.7-8.7 2.1-17.5c0.3-5.8 0.1-11.7-0.5-17.5-0.3-3.3-0.9-6.7-0.6-10 0.1-0.2 0.2-0.4 0.4-0.4 0.3 0 0.5 0.2 0.5 0.4z"/>
				</g>
				<g id="&lt;Group&gt;">
					<path id="&lt;Path&gt;" class="s9" d="m33.7 215.3c-0.7 8.6-1.3 17.1-1.9 25.7-0.1 2.2-0.2 4.3-0.2 6.5 0 2.1 0.1 4.2 0.2 6.4 0.2 2.1 0.4 4.2 0.4 6.3q0.1 3.2 0 6.4c-0.1 4.8-0.4 9.7-0.8 14.5 0 0.5-0.8 0.5-0.8 0 0.3-4.3 0.6-8.6 0.8-12.9q0.2-6.4-0.3-12.8c-0.1-2.1-0.3-4.3-0.3-6.5-0.1-2.1 0-4.2 0.1-6.3 0.2-4.3 0.6-8.6 0.9-12.8q0.5-7.3 1-14.5c0.1-0.5 0.9-0.5 0.9 0z"/>
				</g>
				<g id="&lt;Group&gt;">
					<path id="&lt;Path&gt;" class="s1" d="m49.3 304.3c1 0.8 1.5 2.2 1.1 3.5-0.1 0.1-0.2 0.2-0.4 0.2-0.1-0.1-0.2-0.2-0.1-0.4 0.3-1 0-2.2-0.9-2.8-0.3-0.2 0-0.7 0.3-0.5z"/>
				</g>
				<g id="&lt;Group&gt;">
					<path id="&lt;Path&gt;" class="s1" d="m45.8 305c0.9 0.6 1.2 1.8 0.8 2.8-0.1 0.1-0.3 0.2-0.4 0.1-0.1-0.1-0.1-0.2-0.1-0.4 0.3-0.7 0.1-1.6-0.6-2-0.1-0.1-0.1-0.3-0.1-0.4 0.1-0.1 0.3-0.2 0.4-0.1z"/>
				</g>
				<g id="&lt;Group&gt;">
					<path id="&lt;Path&gt;" class="s1" d="m42.4 306.2c0.8 0.6 1 1.8 0.6 2.7-0.1 0.2-0.3 0.2-0.4 0.1-0.1 0-0.1-0.2-0.1-0.3 0.3-0.7 0.1-1.6-0.5-2.1-0.2-0.1-0.1-0.3 0-0.4 0.1-0.1 0.2-0.1 0.4 0z"/>
				</g>
				<g id="&lt;Group&gt;">
					<path id="&lt;Path&gt;" class="s1" d="m39.2 306.3c0.6 0.4 0.9 1.4 0.4 2.1-0.1 0.1-0.2 0.1-0.4 0.1-0.1-0.1-0.2-0.3-0.1-0.4q0.1-0.1 0.1-0.1 0 0 0-0.1c0 0 0.1 0 0 0 0 0.1 0 0 0 0q0.1 0 0.1-0.1 0 0 0-0.1c0 0 0 0 0 0 0 0 0 0 0 0q0-0.1 0-0.1 0-0.1 0-0.2 0 0 0 0 0 0 0 0 0-0.1-0.1-0.2c0-0.1 0.1 0 0 0q0-0.1 0-0.1 0 0-0.1-0.1 0 0 0 0c0 0 0-0.1 0 0q0-0.1-0.1-0.1 0-0.1 0-0.1c-0.1 0 0 0-0.1 0q0 0 0 0c-0.1-0.1-0.2-0.3-0.1-0.4 0.1-0.1 0.2-0.2 0.4-0.1z"/>
				</g>
				<g id="&lt;Group&gt;">
					<path id="&lt;Path&gt;" class="s1" d="m91.2 296.8c-1.3 0-2.7 0.4-3.7 1.3-0.1 0.1-0.3 0.1-0.4 0-0.1-0.1-0.1-0.3 0-0.4 1.2-0.9 2.6-1.5 4.1-1.5 0.4 0 0.4 0.6 0 0.6z"/>
				</g>
				<g id="&lt;Group&gt;">
					<path id="&lt;Path&gt;" class="s1" d="m66.2 286.2c0.4 0.9-0.1 2-0.9 2.5-0.3 0.2-0.6-0.3-0.3-0.5 0.1 0 0.2-0.1 0.2-0.1q0.2-0.1 0.2-0.2c0 0 0.1 0 0.1-0.1q0 0 0 0 0-0.1 0.1-0.1c0-0.1 0.1-0.2 0.1-0.3 0.1-0.2 0.1-0.3 0.1-0.5q0-0.1 0-0.1 0-0.1 0-0.1c0 0 0 0 0 0q-0.1-0.2-0.1-0.3c-0.1-0.2 0-0.3 0.2-0.4 0.1 0 0.3 0.1 0.3 0.2z"/>
				</g>
				<g id="&lt;Group&gt;">
					<path id="&lt;Path&gt;" class="s10" d="m65.3 19.3c4.6 3.4 7.7 9 7.7 13.9 0 4.3-2.6 8.3-2.6 8.3-0.6-0.2-1.7 0.9-1.7 0.9-0.6-1.6-2.4-4.1-6.2-6-3.9-1.8-5.5-6.3-5.5-6.3z"/>
					<path id="&lt;Path&gt;" class="s11" d="m65.3 19.3q0.6 0.4 1.1 0.9c0 2.3-0.4 11.8-6.8 14-1.8-1.9-2.6-4.1-2.6-4.1z"/>
					<g id="&lt;Group&gt;">
						<path id="&lt;Path&gt;" class="s12" d="m44.3 41.5c-1.8-2.7-2.1-5.4-2.3-8.1-0.7-12 9-15.1 16.7-22.8 1.6-1.6 8.1 5.8 7.6 9.5-0.4 3.8-4.5 10.4-11.2 13.6-6.6 3.1-9.8 8.2-9.8 8.2-0.6-0.4-1-0.4-1-0.4z"/>
					</g>
				</g>
				<path id="&lt;Path&gt;" class="s11" d="m60.1 32.1c0 0 7.7 1 9.3 9.7-0.2 0.2-0.4 0.3-0.5 0.4-0.4-1.5-2.1-7.7-8.8-10.1z"/>
				<path id="&lt;Path&gt;" class="s11" d="m69.8 41.6c-0.3 0.1-0.5 0.3-0.7 0.4-0.1-2.7-0.9-10.5-6.7-12.9 0 0 7.1 0.3 7.4 12.5z"/>
				<path id="&lt;Path&gt;" class="s11" d="m70.4 41.5q0 0 0 0c-0.2 0-0.4 0-0.7 0.1 3.2-12.9-3.6-18.8-3.6-18.8 7.4 5.4 5.1 15.9 4.3 18.7z"/>
				<path id="&lt;Path&gt;" class="s11" d="m65 25.6c6.6 4.9 5.3 14 4.9 16q-0.3 0-0.5 0.2c1.5-11-4.4-16.2-4.4-16.2z"/>
				<path id="&lt;Path&gt;" class="s11" d="m52.5 31.3c0 0-5.6 2.5-7.6 10.4-0.4-0.2-0.6-0.2-0.6-0.2q-0.2-0.3-0.3-0.5c0.3-2.1 1.8-8 8.2-11 7.8-3.7 13.4-12.9 13.5-12.9q0.1 0.2 0.1 0.3c-1 2.3-4.3 8.2-13.3 13.9z"/>
				<g id="&lt;Group&gt;">
					<path id="&lt;Path&gt;" class="s11" d="m62.7 12.7q0 0 0 0 0 0 0 0z"/>
					<path id="&lt;Path&gt;" class="s11" d="m49.9 25.6c8.8-5.2 16.4-8 12.8-12.9 0.2 0.2 1.9 3-1.5 5.2-3.1 1.9-17.6 4.5-19.1 15.7 0.1 1.9 0.3 3.7 1 5.6-0.3-2.9 0-9.6 6.8-13.6z"/>
				</g>
				<path id="&lt;Path&gt;" class="s11" d="m58.9 10.5c0.3 0.4 1.8 3.1-0.9 4.8-2.9 1.7-14 5.3-15.8 14.2 1-6.4 5.5-9.8 10.5-13.7q1.9-0.7 4-1.2c0 0 3.4-1 2.2-4.1q0 0 0 0z"/>
			</g>
		</g>
	</g>
</svg>